Coordinates
version=1
nRows=10
nColumns=40
inDegrees=yes

Units are S.I. units (second, meters, Newtons, ...)
If the header above contains a line with 'inDegrees', this indicates whether rotational values are in degrees (yes) or radians (no).

endheader
time	pelvis_tilt	pelvis_list	pelvis_rotation	pelvis_tx	pelvis_ty	pelvis_tz	hip_flexion_r	hip_adduction_r	hip_rotation_r	knee_angle_r	knee_angle_r_beta	ankle_angle_r	subtalar_angle_r	mtp_angle_r	hip_flexion_l	hip_adduction_l	hip_rotation_l	knee_angle_l	knee_angle_l_beta	ankle_angle_l	subtalar_angle_l	mtp_angle_l	lumbar_extension	lumbar_bending	lumbar_rotation	arm_flex_r	arm_add_r	arm_rot_r	elbow_flex_r	pro_sup_r	wrist_flex_r	wrist_dev_r	arm_flex_l	arm_add_l	arm_rot_l	elbow_flex_l	pro_sup_l	wrist_flex_l	wrist_dev_l
     10.34999999999999964473	    -10.16914763160299628453	     -0.08041805767863717536	   -174.91839376905218728098	      0.23850107102159009975	      0.67380011865008848648	     -0.92998804999599871124	     42.92356758337096778178	    -47.94687891957531178377	    -10.15821038358105177224	     72.97103056799996068094	      1.27358474198502724661	     14.45507108726829237355	      0.00000000000000000000	      0.00000000000000000000	     50.84342485934866573416	    -48.65500036293005337029	     -5.06282911695049442358	     72.55831162490785857244	      1.26638143754271892405	      4.40129698550672809887	      0.00000000000000000000	      0.00000000000000000000	    -68.74085735118423201584	      4.25012247600433301642	     -7.05936044123478012580	     45.87625561879419677780	      3.65657485243221946902	     22.13380211672613739893	      5.46177445991901233668	     22.26789098785261344915	      0.00000000000000000000	      0.00000000000000000000	     50.46076113089083037266	    -10.92389296302535939276	     66.36274863981233806953	      6.34851204563243953771	     74.79805889374242156009	      0.00000000000000000000	      0.00000000000000000000
     10.35500000000000042633	    -10.07206750658225402617	     -0.06847893403180992100	   -174.89747818330047834934	      0.23826551333125503551	      0.67468444635799029729	     -0.93028405499064359407	     42.84164965959832471754	    -47.88335694693525823595	    -10.28941350526021025757	     72.84656838801954847895	      1.27141246715015943103	     14.43157992785715748596	      0.00000000000000000000	      0.00000000000000000000	     50.76482421407316536488	    -48.60478268840347482183	     -5.15397260272397872427	     72.34953889740475574399	      1.26273766605942094898	      4.31033440494129660436	      0.00000000000000000000	      0.00000000000000000000	    -68.72632931071876782880	      4.24860834304933199235	     -7.03751198727368354469	     45.85500075380878826081	      3.65813787745266205675	     22.21164291895552267420	      5.64169801765703127217	     21.16067646233368648723	      0.00000000000000000000	      0.00000000000000000000	     50.56442044332349183833	    -10.89135373358021041668	     66.18408924319102482059	      6.22528425649858530022	     76.05660263631747852742	      0.00000000000000000000	      0.00000000000000000000
     10.35999999999999943157	     -9.99860101048140315072	     -0.05416837460157189477	   -174.89380841046911996273	      0.23800898303362319486	      0.67564235651487636325	     -0.93054843680308552134	     42.71398453493561220284	    -47.82339566390486851333	    -10.44800349108050419034	     72.68541309628255930875	      1.26859977670233692315	     14.41406674503845408708	      0.00000000000000000000	      0.00000000000000000000	     50.62783209003826812022	    -48.58020677017529465047	     -5.28980840451384271006	     72.12249188147620770906	      1.25877494807463974347	      4.24980952035547332457	      0.00000000000000000000	      0.00000000000000000000	    -68.75543281813681062431	      4.25862756014451182551	     -7.01271144283245018158	     45.85613868679708104992	      3.65314775039876282747	     22.57335925203680204731	      5.94867146346452990713	     18.71959085902703989746	      0.00000000000000000000	      0.00000000000000000000	     50.63159247723570643984	    -10.81492695949819271561	     64.77586859064062707603	      6.08373283500540829039	     77.72156000078908277828	      0.00000000000000000000	      0.00000000000000000000
     10.36500000000000021316	     -9.90782801155552128591	     -0.06328153040916936756	   -174.91282450910418333478	      0.23774754384507834626	      0.67656547812598477609	     -0.93082013378748085231	     42.66163323765080406247	    -47.75435931057235450226	    -10.52607846423452109264	     72.54135439006051910837	      1.26608547796259895968	     14.31523967495940397043	      0.00000000000000000000	      0.00000000000000000000	     50.45954221802620764947	    -48.54795650671388784758	     -5.47711595781524973603	     71.90002896051984748738	      1.25489223764034729669	      4.16420741160827923011	      0.00000000000000000000	      0.00000000000000000000	    -68.72832892897437773172	      4.20715172755408062244	     -7.03773109292785825630	     45.92911741707846573490	      3.69301002836647196403	     21.98489796067239510080	      5.64872833072383162545	     21.32328508203761074924	      0.00000000000000000000	      0.00000000000000000000	     50.59763600673340988578	    -10.93199149127802449755	     65.56870563453169609147	      6.27046078001514217704	     75.65027697604931233855	      0.00000000000000000000	      0.00000000000000000000
     10.36999999999999921840	     -9.79940360026223444834	     -0.06725818667463710765	   -174.90723800297200796194	      0.23749092819055314663	      0.67743114453371611194	     -0.93106501369965832815	     42.60710804327745648834	    -47.70938464326015093775	    -10.64632471684302927883	     72.39830689961836185375	      1.26358882826766816265	     14.31633155436076343392	      0.00000000000000000000	      0.00000000000000000000	     50.36581627108353131916	    -48.49178872260187489474	     -5.59995198741870758852	     71.69596335104120043979	      1.25133062086485602471	      4.07841141456509159724	      0.00000000000000000000	      0.00000000000000000000	    -68.68393121636140108421	      4.18254891548102847310	     -6.97374344513378741084	     45.83811068624672913074	      3.60463556578343169434	     22.03575145020560910325	      5.97366290716685277573	     20.69563872036388119113	      0.00000000000000000000	      0.00000000000000000000	     50.70969141519805134521	    -10.80749947786105735759	     65.61389840821502161816	      6.05369235152940099454	     76.79003576173953149464	      0.00000000000000000000	      0.00000000000000000000
     10.37500000000000000000	     -9.74092671875931692682	     -0.03138788104985646560	   -174.86481224480414198297	      0.23725355627612976228	      0.67838498554650783490	     -0.93124618846232820601	     42.41238765827122136898	    -47.66524868056262675964	    -10.89322180551684837724	     72.23706035924467983023	      1.26077454523069754089	     14.22442198187751927208	      0.00000000000000000000	      0.00000000000000000000	     50.27088577056173335222	    -48.43071985363830123106	     -5.62065831506748736501	     71.47641895671299039350	      1.24749884832953195080	      4.02756918971513666605	      0.00000000000000000000	      0.00000000000000000000	    -68.68651227619980659256	      4.20961190232061621685	     -6.92859608741408461441	     45.92959056592959399268	      3.58750259406530691564	     21.84838165614061367137	      5.67992637685832324479	     21.77548481006654768066	      0.00000000000000000000	      0.00000000000000000000	     50.70818038529910865009	    -10.87423093313519650849	     65.94075571663969981273	      6.19641740869265156277	     75.86007271738300516972	      0.00000000000000000000	      0.00000000000000000000
     10.38000000000000078160	     -9.68586328691218056974	      0.01201380055360026441	   -174.83884613023130327747	      0.23700838106000565730	      0.67934959528277572005	     -0.93140052602595269082	     42.22312971806334758185	    -47.60323594891018217368	    -11.12186401943135294346	     72.07312498475670281550	      1.25791333318539244601	     14.17292201786799665797	      0.00000000000000000000	      0.00000000000000000000	     50.19709555835804337676	    -48.38978905826908771814	     -5.63496860208534045000	     71.28434547563567491579	      1.24414653367896588243	      3.94827295108772702292	      0.00000000000000000000	      0.00000000000000000000	    -68.68357592658807675434	      4.23533950599056030484	     -6.85014085600450162161	     46.02095890652771714713	      3.57852233045028267355	     21.50498662394749160853	      5.39675280461922302067	     23.26224105662662822169	      0.00000000000000000000	      0.00000000000000000000	     50.70505114428418380612	    -10.90214154195966500538	     66.21659427414591903016	      6.31059683848892394309	     74.88771216668909858072	      0.00000000000000000000	      0.00000000000000000000
     10.38499999999999978684	     -9.57339753814671290399	     -0.04761514045620487967	   -174.90750441528408032354	      0.23675599401655880727	      0.68029159145674411580	     -0.93172002959566824210	     42.27596470760319391502	    -47.54071205842742386949	    -11.08222250824362475896	     71.91561312274960471314	      1.25516423258242149075	     14.14138537671525774897	      0.00000000000000000000	      0.00000000000000000000	     49.96119362166064092889	    -48.33653931259232194861	     -5.91194879780555737625	     71.05883260344596408231	      1.24021059155362634030	      3.84852195806287422641	      0.00000000000000000000	      0.00000000000000000000	    -68.63529450707821411015	      4.14558384118785561157	     -7.03558796073063863474	     45.93388499949141845491	      3.73697597190821007018	     22.67226145897110711758	      5.84363165940441930957	     19.51675184444287225460	      0.00000000000000000000	      0.00000000000000000000	     50.74625573294927249890	    -10.92424588265146745414	     64.44362743574234286825	      6.08761300614943845488	     77.49656394195564246274	      0.00000000000000000000	      0.00000000000000000000
     10.39000000000000056843	     -9.53234829043645603974	      0.03199638192615272131	   -174.88037999362947516602	      0.23654894385655170219	      0.68128805258114122356	     -0.93187852601534071351	     42.04382265384084860216	    -47.44350949461477995328	    -11.35444295172858986120	     71.74736523042943758810	      1.25222775290189369812	     14.02078531064939248552	      0.00000000000000000000	      0.00000000000000000000	     49.92535242401708472926	    -48.32241737742710796510	     -5.86919877209835849641	     70.86890701716782814401	      1.23689576473929219169	      3.73471023612056818308	      0.00000000000000000000	      0.00000000000000000000	    -68.64654404442565294175	      4.18870302528077953497	     -6.86724271942595620999	     46.01852139145413644883	      3.58887573017458905156	     22.04300961021211335833	      5.45483862357574000868	     22.12381068839408726490	      0.00000000000000000000	      0.00000000000000000000	     50.73135674224599256377	    -10.95322537734001322463	     65.45935035140857394254	      6.29463757405783930210	     75.33489064455825712230	      0.00000000000000000000	      0.00000000000000000000
     10.39499999999999957367	     -9.45776483916645993588	      0.04703683775056436561	   -174.88982223288971340480	      0.23627346758779527169	      0.68225807787681547190	     -0.93207992016319851647	     41.94217965740259757013	    -47.38089173999884451405	    -11.49928839416794978945	     71.59477257465930222224	      1.24956450864434254200	     13.96093128205089328731	      0.00000000000000000000	      0.00000000000000000000	     49.78985891076687408940	    -48.28688600406889008809	     -5.96985532100275850809	     70.66469490312569234902	      1.23333159097679878613	      3.67847126090492038131	      0.00000000000000000000	      0.00000000000000000000	    -68.61828760674933391783	      4.17188538593537661114	     -6.77479597179479053892	     46.01194941357254464265	      3.51586780901609197159	     22.06635554290162559710	      5.51103747633839446962	     22.48736667095886332390	      0.00000000000000000000	      0.00000000000000000000	     50.78367120850248994657	    -10.91649700070433759436	     66.08102956954803630651	      6.30315009892636179956	     75.14565118691010070506	      0.00000000000000000000	      0.00000000000000000000
